<svg width="100" height="100" viewBox="0 0 100 100" fill="none" xmlns="http://www.w3.org/2000/svg">
<g clip-path="url(#clip0_1902_17830)">
<path fill-rule="evenodd" clip-rule="evenodd" d="M0 100H100V0H0V100Z" fill="#DD0000"/>
<path fill-rule="evenodd" clip-rule="evenodd" d="M52.0554 89.3163H61.7541V10.6359H52.0554V89.3163ZM20.4257 42.6784H24.4075V20.2649H20.4264V42.6784H20.4257ZM20.4257 79.4737H24.4075V52.3095H20.4264V79.4737H20.4257ZM29.871 10.5521H10.7318L10.7271 89.2075L29.8473 89.2061C32.1784 89.2007 34.0669 87.3122 34.0723 84.9622L34.073 52.5629V50.8352C34.073 48.3791 32.0629 46.3818 29.6068 46.3818L30.0298 46.3845C32.2527 46.3845 34.073 44.5892 34.073 42.3663V14.7973C34.0662 12.4467 32.1791 10.5575 29.871 10.5521ZM75.7257 79.4737H79.7061V33.8561H75.7257V79.4737ZM79.7021 10.55V24.2433H70.2622C67.9534 24.2487 66.0771 26.1379 66.071 28.4872L66.0602 84.9622C66.0656 87.3122 67.9548 89.2007 70.2865 89.2061L89.4054 89.2325V10.55H79.7021ZM38.2737 20.2649H47.973V10.5521H38.2737V20.2649ZM38.2737 89.2325H47.973V24.248H38.2737V89.2325Z" fill="white"/>
</g>
<defs>
<clipPath id="clip0_1902_17830">
<rect width="100" height="100" fill="white"/>
</clipPath>
</defs>
</svg>
