<svg width="232" height="31" viewBox="0 0 232 31" fill="none" xmlns="http://www.w3.org/2000/svg">
<path fill-rule="evenodd" clip-rule="evenodd" d="M15 27.6416C21.9036 27.6416 27.5 22.0452 27.5 15.1416C27.5 8.23804 21.9036 2.6416 15 2.6416C8.09644 2.6416 2.5 8.23804 2.5 15.1416C2.5 22.0452 8.09644 27.6416 15 27.6416ZM17.0752 10.6041C17.4061 10.6041 17.9323 10.6623 18.3219 10.7402L18.6721 8.53931C17.9126 8.38348 17.3282 8.2666 16.5298 8.2666C14.2317 8.2666 13.3165 9.35743 13.3165 11.3049V12.7266H11.875V15.0252H13.3165V22.0166H16.121V15.0252H18.1656L18.3609 12.7266H16.121V11.617C16.121 10.9937 16.1792 10.6041 17.0752 10.6041Z" fill="#000016"/>
<path fill-rule="evenodd" clip-rule="evenodd" d="M55 27.6416C61.9036 27.6416 67.5 22.0452 67.5 15.1416C67.5 8.23804 61.9036 2.6416 55 2.6416C48.0964 2.6416 42.5 8.23804 42.5 15.1416C42.5 22.0452 48.0964 27.6416 55 27.6416ZM58.0307 9.03681C57.2398 9.00073 57.0026 8.99308 55 8.99308C52.9974 8.99308 52.7602 9.00073 51.9694 9.03681C51.2381 9.07016 50.841 9.19234 50.5767 9.29505C50.2266 9.4311 49.9768 9.59363 49.7144 9.85609C49.4519 10.1185 49.2894 10.3684 49.1533 10.7184C49.0506 10.9827 48.9284 11.3798 48.8951 12.1111C48.859 12.9019 48.8514 13.1391 48.8514 15.1417C48.8514 17.1443 48.859 17.3815 48.8951 18.1723C48.9284 18.9036 49.0506 19.3007 49.1533 19.565C49.2894 19.9151 49.4519 20.1649 49.7144 20.4273C49.9768 20.6898 50.2266 20.8523 50.5767 20.9884C50.841 21.0911 51.2381 21.2133 51.9694 21.2466C52.7601 21.2827 52.9973 21.2903 55 21.2903C57.0027 21.2903 57.2399 21.2827 58.0307 21.2466C58.7619 21.2133 59.159 21.0911 59.4233 20.9884C59.7734 20.8523 60.0232 20.6898 60.2857 20.4273C60.5481 20.1649 60.7106 19.9151 60.8467 19.565C60.9494 19.3007 61.0716 18.9036 61.1049 18.1723C61.141 17.3815 61.1487 17.1443 61.1487 15.1417C61.1487 13.1391 61.141 12.9019 61.1049 12.1111C61.0716 11.3798 60.9494 10.9827 60.8467 10.7184C60.7106 10.3684 60.5481 10.1185 60.2857 9.85606C60.0232 9.59363 59.7734 9.4311 59.4233 9.29505C59.159 9.19234 58.7619 9.07016 58.0307 9.03681ZM51.9078 7.68687C52.7077 7.65037 52.9631 7.64174 55 7.64174C57.0369 7.64174 57.2923 7.65037 58.0923 7.68687C58.8905 7.72328 59.4357 7.85008 59.9128 8.03546C60.406 8.22713 60.8242 8.48358 61.2412 8.90052C61.6582 9.3175 61.9146 9.73575 62.1063 10.2289C62.2917 10.706 62.4185 11.2512 62.4549 12.0495C62.4914 12.8494 62.5 13.1048 62.5 15.1417C62.5 17.1786 62.4914 17.434 62.4549 18.2339C62.4185 19.0322 62.2917 19.5774 62.1063 20.0545C61.9146 20.5477 61.6582 20.9659 61.2412 21.3829C60.8242 21.7998 60.406 22.0563 59.9128 22.2479C59.4357 22.4333 58.8905 22.5601 58.0923 22.5966C57.2923 22.6331 57.0369 22.6417 55 22.6417C52.9631 22.6417 52.7077 22.6331 51.9078 22.5966C51.1095 22.5601 50.5643 22.4333 50.0872 22.2479C49.594 22.0563 49.1758 21.7998 48.7588 21.3829C48.3419 20.9659 48.0854 20.5477 47.8938 20.0545C47.7084 19.5774 47.5816 19.0322 47.5451 18.2339C47.5086 17.434 47.5 17.1786 47.5 15.1417C47.5 13.1048 47.5086 12.8494 47.5451 12.0495C47.5816 11.2512 47.7084 10.706 47.8938 10.2289C48.0854 9.73575 48.3419 9.3175 48.7588 8.90052C49.1758 8.48358 49.594 8.22713 50.0872 8.03546C50.5643 7.85008 51.1095 7.72328 51.9078 7.68687ZM55.0035 11.2938C52.8764 11.2938 51.1521 13.0181 51.1521 15.1451C51.1521 17.2722 52.8764 18.9965 55.0035 18.9965C57.1305 18.9965 58.8548 17.2722 58.8548 15.1451C58.8548 13.0181 57.1305 11.2938 55.0035 11.2938ZM55.0035 17.6451C53.6228 17.6451 52.5035 16.5259 52.5035 15.1451C52.5035 13.7644 53.6228 12.6452 55.0035 12.6452C56.3842 12.6452 57.5035 13.7644 57.5035 15.1451C57.5035 16.5259 56.3842 17.6451 55.0035 17.6451ZM59.0067 12.0393C59.5038 12.0393 59.9067 11.6364 59.9067 11.1394C59.9067 10.6423 59.5038 10.2393 59.0067 10.2393C58.5097 10.2393 58.1067 10.6423 58.1067 11.1394C58.1067 11.6364 58.5097 12.0393 59.0067 12.0393Z" fill="#000016"/>
<path fill-rule="evenodd" clip-rule="evenodd" d="M95 27.6416C101.904 27.6416 107.5 22.0452 107.5 15.1416C107.5 8.23804 101.904 2.6416 95 2.6416C88.0964 2.6416 82.5 8.23804 82.5 15.1416C82.5 22.0452 88.0964 27.6416 95 27.6416ZM100.733 10.8192C101.355 10.7447 101.949 10.5797 102.5 10.3348C102.088 10.9517 101.566 11.4937 100.964 11.9286C100.97 12.0601 100.973 12.1931 100.973 12.3266C100.973 16.3928 97.8773 21.082 92.2172 21.082C90.4793 21.082 88.8619 20.5721 87.5 19.6991C87.7405 19.7281 87.9855 19.7426 88.2344 19.7426C89.6764 19.7426 91.0033 19.2502 92.0562 18.4252C90.7098 18.4002 89.5729 17.5103 89.1814 16.2879C89.3694 16.3239 89.5624 16.3434 89.7608 16.3434C90.0413 16.3434 90.3133 16.3054 90.5713 16.2354C89.1644 15.9519 88.103 14.7085 88.103 13.2171V13.1786C88.5184 13.409 88.9924 13.5475 89.4974 13.5635C88.6709 13.0116 88.1285 12.0696 88.1285 11.0022C88.1285 10.4382 88.2799 9.90978 88.5449 9.45531C90.0628 11.3172 92.3302 12.5426 94.888 12.6706C94.8355 12.4451 94.808 12.2101 94.808 11.9691C94.808 10.2698 96.1859 8.89185 97.8853 8.89185C98.7697 8.89185 99.5702 9.26582 100.132 9.86378C100.832 9.72529 101.492 9.46981 102.086 9.11683C101.856 9.83528 101.368 10.4382 100.733 10.8192Z" fill="#000016"/>
<path fill-rule="evenodd" clip-rule="evenodd" d="M147.5 15.1416C147.5 22.0452 141.904 27.6416 135 27.6416C128.096 27.6416 122.5 22.0452 122.5 15.1416C122.5 8.23804 128.096 2.6416 135 2.6416C141.904 2.6416 147.5 8.23804 147.5 15.1416ZM131.734 9.06915C131.734 9.84733 131.142 10.4771 130.215 10.4771C129.325 10.4771 128.732 9.84733 128.75 9.06915C128.732 8.25315 129.325 7.64172 130.233 7.64172C131.142 7.64172 131.716 8.25315 131.734 9.06915ZM128.825 20.6531V11.5894H131.642V20.6531H128.825ZM133.825 11.5907C133.863 12.3878 133.9 13.3516 133.9 14.4822H133.901V20.655H136.718V15.4277C136.718 15.1676 136.755 14.9086 136.829 14.7229C137.014 14.2043 137.477 13.6668 138.256 13.6668C139.275 13.6668 139.683 14.4633 139.683 15.6317V20.655H142.5V15.2788C142.5 12.6107 141.11 11.3873 139.257 11.3873C137.755 11.3873 136.829 12.2577 136.458 12.8325H136.402L136.272 11.5907H133.825Z" fill="#000016"/>
<rect x="163" y="2.19336" width="25" height="25" rx="12.5" fill="#000016"/>
<path d="M182.684 10.8843C182.598 10.5672 182.431 10.2781 182.199 10.0459C181.967 9.81367 181.678 9.64653 181.36 9.56117C180.193 9.24512 175.5 9.24512 175.5 9.24512C175.5 9.24512 170.807 9.24512 169.64 9.56117C169.322 9.64653 169.033 9.81367 168.801 10.0459C168.569 10.2781 168.402 10.5672 168.316 10.8843C168.098 12.0753 167.993 13.2841 168 14.4948C167.993 15.7056 168.098 16.9144 168.316 18.1054C168.402 18.4225 168.569 18.7116 168.801 18.9438C169.033 19.176 169.322 19.3431 169.64 19.4285C170.807 19.7446 175.5 19.7446 175.5 19.7446C175.5 19.7446 180.193 19.7446 181.36 19.4285C181.678 19.3431 181.967 19.176 182.199 18.9438C182.431 18.7116 182.598 18.4225 182.684 18.1054C182.902 16.9144 183.007 15.7056 183 14.4948C183.007 13.2841 182.902 12.0753 182.684 10.8843ZM174 16.7447V12.245L177.895 14.4948L174 16.7447Z" fill="white"/>
<rect x="204" y="2.19336" width="25" height="25" rx="12.5" fill="#000016"/>
<path d="M221.113 21.959H224C224 13.8215 217.269 7.19336 209 7.19336V10.0246C215.675 10.0246 221.113 15.3777 221.113 21.959ZM216.012 21.959H218.9C218.9 16.5871 214.456 12.209 209 12.209V15.0402C210.875 15.0402 212.628 15.7621 213.959 17.0652C214.611 17.7029 215.128 18.4643 215.48 19.3047C215.833 20.1452 216.014 21.0476 216.012 21.959ZM210.997 21.9402C212.094 21.9402 212.994 21.0684 212.994 19.9809C212.994 18.9027 212.094 18.0215 210.997 18.0215C209.891 18.0215 209 18.9027 209 19.9809C209 21.0684 209.891 21.9402 210.997 21.9402Z" fill="white"/>
</svg>
