<svg width="112" height="71" viewBox="0 0 112 71" fill="none" xmlns="http://www.w3.org/2000/svg">
<path fill-rule="evenodd" clip-rule="evenodd" d="M15 28.4844C21.9036 28.4844 27.5 22.8879 27.5 15.9844C27.5 9.08082 21.9036 3.48438 15 3.48438C8.09644 3.48438 2.5 9.08082 2.5 15.9844C2.5 22.8879 8.09644 28.4844 15 28.4844ZM17.0752 11.4469C17.4061 11.4469 17.9323 11.5051 18.3219 11.583L18.6721 9.38208C17.9126 9.22625 17.3282 9.10938 16.5298 9.10938C14.2317 9.10938 13.3165 10.2002 13.3165 12.1477V13.5694H11.875V15.868H13.3165V22.8594H16.121V15.868H18.1656L18.3609 13.5694H16.121V12.4598C16.121 11.8365 16.1792 11.4469 17.0752 11.4469Z" fill="#000016"/>
<path fill-rule="evenodd" clip-rule="evenodd" d="M55 28.4844C61.9036 28.4844 67.5 22.8879 67.5 15.9844C67.5 9.08082 61.9036 3.48438 55 3.48438C48.0964 3.48438 42.5 9.08082 42.5 15.9844C42.5 22.8879 48.0964 28.4844 55 28.4844ZM58.0307 9.87959C57.2398 9.84351 57.0026 9.83585 55 9.83585C52.9974 9.83585 52.7602 9.84351 51.9694 9.87959C51.2381 9.91293 50.841 10.0351 50.5767 10.1378C50.2266 10.2739 49.9768 10.4364 49.7144 10.6989C49.4519 10.9613 49.2894 11.2111 49.1533 11.5612C49.0506 11.8255 48.9284 12.2226 48.8951 12.9539C48.859 13.7447 48.8514 13.9819 48.8514 15.9845C48.8514 17.9871 48.859 18.2243 48.8951 19.0151C48.9284 19.7464 49.0506 20.1435 49.1533 20.4078C49.2894 20.7578 49.4519 21.0077 49.7144 21.2701C49.9768 21.5326 50.2266 21.6951 50.5767 21.8311C50.841 21.9339 51.2381 22.056 51.9694 22.0894C52.7601 22.1255 52.9973 22.1331 55 22.1331C57.0027 22.1331 57.2399 22.1255 58.0307 22.0894C58.7619 22.056 59.159 21.9339 59.4233 21.8311C59.7734 21.6951 60.0232 21.5326 60.2857 21.2701C60.5481 21.0077 60.7106 20.7578 60.8467 20.4078C60.9494 20.1435 61.0716 19.7464 61.1049 19.0151C61.141 18.2243 61.1487 17.9871 61.1487 15.9845C61.1487 13.9819 61.141 13.7447 61.1049 12.9539C61.0716 12.2226 60.9494 11.8255 60.8467 11.5612C60.7106 11.2111 60.5481 10.9613 60.2857 10.6988C60.0232 10.4364 59.7734 10.2739 59.4233 10.1378C59.159 10.0351 58.7619 9.91293 58.0307 9.87959ZM51.9078 8.52964C52.7077 8.49314 52.9631 8.48451 55 8.48451C57.0369 8.48451 57.2923 8.49314 58.0923 8.52964C58.8905 8.56605 59.4357 8.69285 59.9128 8.87823C60.406 9.0699 60.8242 9.32635 61.2412 9.7433C61.6582 10.1603 61.9146 10.5785 62.1063 11.0717C62.2917 11.5488 62.4185 12.094 62.4549 12.8923C62.4914 13.6922 62.5 13.9476 62.5 15.9845C62.5 18.0214 62.4914 18.2768 62.4549 19.0767C62.4185 19.875 62.2917 20.4202 62.1063 20.8973C61.9146 21.3904 61.6582 21.8087 61.2412 22.2257C60.8242 22.6426 60.406 22.8991 59.9128 23.0907C59.4357 23.2761 58.8905 23.4029 58.0923 23.4393C57.2923 23.4758 57.0369 23.4845 55 23.4845C52.9631 23.4845 52.7077 23.4758 51.9078 23.4393C51.1095 23.4029 50.5643 23.2761 50.0872 23.0907C49.594 22.8991 49.1758 22.6426 48.7588 22.2257C48.3419 21.8087 48.0854 21.3904 47.8938 20.8973C47.7084 20.4202 47.5816 19.875 47.5451 19.0767C47.5086 18.2768 47.5 18.0214 47.5 15.9845C47.5 13.9476 47.5086 13.6922 47.5451 12.8923C47.5816 12.094 47.7084 11.5488 47.8938 11.0717C48.0854 10.5785 48.3419 10.1603 48.7588 9.7433C49.1758 9.32635 49.594 9.0699 50.0872 8.87823C50.5643 8.69285 51.1095 8.56605 51.9078 8.52964ZM55.0035 12.1366C52.8764 12.1366 51.1521 13.8609 51.1521 15.9879C51.1521 18.115 52.8764 19.8393 55.0035 19.8393C57.1305 19.8393 58.8548 18.115 58.8548 15.9879C58.8548 13.8609 57.1305 12.1366 55.0035 12.1366ZM55.0035 18.4879C53.6228 18.4879 52.5035 17.3686 52.5035 15.9879C52.5035 14.6072 53.6228 13.4879 55.0035 13.4879C56.3842 13.4879 57.5035 14.6072 57.5035 15.9879C57.5035 17.3686 56.3842 18.4879 55.0035 18.4879ZM59.0067 12.8821C59.5038 12.8821 59.9067 12.4792 59.9067 11.9821C59.9067 11.4851 59.5038 11.0821 59.0067 11.0821C58.5097 11.0821 58.1067 11.4851 58.1067 11.9821C58.1067 12.4792 58.5097 12.8821 59.0067 12.8821Z" fill="#000016"/>
<path fill-rule="evenodd" clip-rule="evenodd" d="M95 28.4844C101.904 28.4844 107.5 22.8879 107.5 15.9844C107.5 9.08082 101.904 3.48438 95 3.48438C88.0964 3.48438 82.5 9.08082 82.5 15.9844C82.5 22.8879 88.0964 28.4844 95 28.4844ZM100.733 11.662C101.355 11.5875 101.949 11.4225 102.5 11.1775C102.088 11.7945 101.566 12.3364 100.964 12.7714C100.97 12.9029 100.973 13.0359 100.973 13.1694C100.973 17.2356 97.8773 21.9248 92.2172 21.9248C90.4793 21.9248 88.8619 21.4148 87.5 20.5419C87.7405 20.5709 87.9855 20.5854 88.2344 20.5854C89.6764 20.5854 91.0033 20.0929 92.0562 19.268C90.7098 19.243 89.5729 18.353 89.1814 17.1306C89.3694 17.1666 89.5624 17.1861 89.7608 17.1861C90.0413 17.1861 90.3133 17.1481 90.5713 17.0781C89.1644 16.7947 88.103 15.5512 88.103 14.0598V14.0213C88.5184 14.2518 88.9924 14.3903 89.4974 14.4063C88.6709 13.8543 88.1285 12.9124 88.1285 11.845C88.1285 11.281 88.2799 10.7526 88.5449 10.2981C90.0628 12.16 92.3302 13.3854 94.888 13.5134C94.8355 13.2879 94.808 13.0529 94.808 12.8119C94.808 11.1125 96.1859 9.73462 97.8853 9.73462C98.7697 9.73462 99.5702 10.1086 100.132 10.7066C100.832 10.5681 101.492 10.3126 102.086 9.9596C101.856 10.6781 101.368 11.281 100.733 11.662Z" fill="#000016"/>
<path fill-rule="evenodd" clip-rule="evenodd" d="M27.5 55.9844C27.5 62.8879 21.9036 68.4844 15 68.4844C8.09644 68.4844 2.5 62.8879 2.5 55.9844C2.5 49.0808 8.09644 43.4844 15 43.4844C21.9036 43.4844 27.5 49.0808 27.5 55.9844ZM11.7342 49.9119C11.7342 50.6901 11.1417 51.3199 10.2151 51.3199C9.3246 51.3199 8.73208 50.6901 8.75041 49.9119C8.73208 49.0959 9.32458 48.4845 10.2328 48.4845C11.1417 48.4845 11.7165 49.0959 11.7342 49.9119ZM8.82491 61.4958V52.4321H11.642V61.4958H8.82491ZM13.8253 52.4335C13.8626 53.2306 13.8998 54.1944 13.8998 55.325H13.901V61.4978H16.718V56.2705C16.718 56.0104 16.7547 55.7514 16.8292 55.5657C17.0143 55.0471 17.4773 54.5096 18.2561 54.5096C19.2755 54.5096 19.6829 55.3061 19.6829 56.4745V61.4978H22.5V56.1215C22.5 53.4535 21.1098 52.2301 19.2566 52.2301C17.7552 52.2301 16.8286 53.1005 16.4579 53.6752H16.4023L16.2722 52.4335H13.8253Z" fill="#000016"/>
<rect x="43" y="43.0361" width="25" height="25" rx="12.5" fill="#000016"/>
<path d="M62.6835 51.7271C62.5982 51.41 62.431 51.1209 62.1988 50.8887C61.9666 50.6564 61.6775 50.4893 61.3604 50.4039C60.1926 50.0879 55.5 50.0879 55.5 50.0879C55.5 50.0879 50.8074 50.0879 49.6396 50.4039C49.3225 50.4893 49.0334 50.6564 48.8012 50.8887C48.569 51.1209 48.4018 51.41 48.3165 51.7271C48.0984 52.9181 47.9926 54.1269 48.0004 55.3376C47.9926 56.5484 48.0984 57.7572 48.3165 58.9481C48.4018 59.2652 48.569 59.5544 48.8012 59.7866C49.0334 60.0188 49.3225 60.1859 49.6396 60.2713C50.8074 60.5873 55.5 60.5873 55.5 60.5873C55.5 60.5873 60.1926 60.5873 61.3604 60.2713C61.6775 60.1859 61.9666 60.0188 62.1988 59.7866C62.431 59.5544 62.5982 59.2652 62.6835 58.9481C62.9016 57.7572 63.0074 56.5484 62.9996 55.3376C63.0074 54.1269 62.9016 52.9181 62.6835 51.7271ZM54.0001 57.5875V53.0877L57.8945 55.3376L54.0001 57.5875Z" fill="white"/>
<rect x="84" y="43.0361" width="25" height="25" rx="12.5" fill="#000016"/>
<path d="M101.113 62.8018H104C104 54.6643 97.2687 48.0361 89 48.0361V50.8674C95.675 50.8674 101.113 56.2205 101.113 62.8018ZM96.0125 62.8018H98.9C98.9 57.4299 94.4563 53.0518 89 53.0518V55.883C90.875 55.883 92.6281 56.6049 93.9594 57.908C94.6105 58.5457 95.1276 59.3071 95.4802 60.1475C95.8328 60.9879 96.0138 61.8904 96.0125 62.8018ZM90.9969 62.783C92.0938 62.783 92.9938 61.9111 92.9938 60.8236C92.9938 59.7455 92.0938 58.8643 90.9969 58.8643C89.8906 58.8643 89 59.7455 89 60.8236C89 61.9111 89.8906 62.783 90.9969 62.783Z" fill="white"/>
</svg>
